<mxfile host="app.diagrams.net" agent="Mozilla/5.0 (Windows NT 10.0; Win64; x64) AppleWebKit/537.36 (KHTML, like Gecko) Chrome/129.0.0.0 Safari/537.36" version="24.7.16">
  <diagram name="Page-1" id="YOdv3uzsB7qJg7rPz8nD">
    <mxGraphModel dx="4097" dy="2109" grid="1" gridSize="10" guides="1" tooltips="1" connect="1" arrows="1" fold="1" page="1" pageScale="1" pageWidth="850" pageHeight="1100" background="none" math="0" shadow="0">
      <root>
        <mxCell id="0" />
        <mxCell id="1" parent="0" />
        <mxCell id="69lMO64Vux8GE26bY3g2-107" style="rounded=0;orthogonalLoop=1;jettySize=auto;html=1;exitX=1;exitY=0.3333333333333333;exitDx=0;exitDy=0;exitPerimeter=0;entryX=0;entryY=0.5;entryDx=0;entryDy=0;endArrow=none;endFill=0;" edge="1" parent="1" source="69lMO64Vux8GE26bY3g2-75" target="69lMO64Vux8GE26bY3g2-82">
          <mxGeometry relative="1" as="geometry" />
        </mxCell>
        <mxCell id="69lMO64Vux8GE26bY3g2-127" style="rounded=0;orthogonalLoop=1;jettySize=auto;html=1;exitX=1;exitY=0.3333333333333333;exitDx=0;exitDy=0;exitPerimeter=0;entryX=0;entryY=0;entryDx=0;entryDy=0;startArrow=none;startFill=0;endArrow=none;endFill=0;" edge="1" parent="1" source="69lMO64Vux8GE26bY3g2-75" target="69lMO64Vux8GE26bY3g2-109">
          <mxGeometry relative="1" as="geometry" />
        </mxCell>
        <mxCell id="69lMO64Vux8GE26bY3g2-137" style="rounded=0;orthogonalLoop=1;jettySize=auto;html=1;exitX=1;exitY=0.3333333333333333;exitDx=0;exitDy=0;exitPerimeter=0;entryX=0.035;entryY=0.335;entryDx=0;entryDy=0;endArrow=none;endFill=0;entryPerimeter=0;" edge="1" parent="1" source="69lMO64Vux8GE26bY3g2-75" target="69lMO64Vux8GE26bY3g2-99">
          <mxGeometry relative="1" as="geometry" />
        </mxCell>
        <mxCell id="69lMO64Vux8GE26bY3g2-75" value="Professor" style="shape=umlActor;verticalLabelPosition=bottom;verticalAlign=top;html=1;outlineConnect=0;" vertex="1" parent="1">
          <mxGeometry x="860" y="290" width="40" height="80" as="geometry" />
        </mxCell>
        <mxCell id="69lMO64Vux8GE26bY3g2-76" style="rounded=0;orthogonalLoop=1;jettySize=auto;html=1;exitX=1;exitY=0.5;exitDx=0;exitDy=0;entryX=0;entryY=0.5;entryDx=0;entryDy=0;dashed=1;" edge="1" source="69lMO64Vux8GE26bY3g2-82" target="69lMO64Vux8GE26bY3g2-83" parent="1">
          <mxGeometry relative="1" as="geometry" />
        </mxCell>
        <mxCell id="69lMO64Vux8GE26bY3g2-77" value="&amp;lt;&amp;lt;INCLUIR&amp;gt;&amp;gt;" style="edgeLabel;html=1;align=center;verticalAlign=middle;resizable=0;points=[];" vertex="1" connectable="0" parent="69lMO64Vux8GE26bY3g2-76">
          <mxGeometry x="0.0684" y="-2" relative="1" as="geometry">
            <mxPoint x="-4" y="-2" as="offset" />
          </mxGeometry>
        </mxCell>
        <mxCell id="69lMO64Vux8GE26bY3g2-93" style="edgeStyle=orthogonalEdgeStyle;rounded=0;orthogonalLoop=1;jettySize=auto;html=1;exitX=0.5;exitY=0;exitDx=0;exitDy=0;entryX=0;entryY=0.5;entryDx=0;entryDy=0;dashed=1;" edge="1" parent="1" source="69lMO64Vux8GE26bY3g2-82" target="69lMO64Vux8GE26bY3g2-92">
          <mxGeometry relative="1" as="geometry" />
        </mxCell>
        <mxCell id="69lMO64Vux8GE26bY3g2-94" value="&amp;lt;&amp;lt;INCLUIR&amp;gt;&amp;gt;" style="edgeLabel;html=1;align=center;verticalAlign=middle;resizable=0;points=[];" vertex="1" connectable="0" parent="69lMO64Vux8GE26bY3g2-93">
          <mxGeometry x="0.272" y="-3" relative="1" as="geometry">
            <mxPoint x="18" y="-3" as="offset" />
          </mxGeometry>
        </mxCell>
        <mxCell id="69lMO64Vux8GE26bY3g2-96" style="edgeStyle=orthogonalEdgeStyle;rounded=0;orthogonalLoop=1;jettySize=auto;html=1;exitX=0.5;exitY=0;exitDx=0;exitDy=0;entryX=0;entryY=0.5;entryDx=0;entryDy=0;dashed=1;" edge="1" parent="1" source="69lMO64Vux8GE26bY3g2-82" target="69lMO64Vux8GE26bY3g2-95">
          <mxGeometry relative="1" as="geometry" />
        </mxCell>
        <mxCell id="69lMO64Vux8GE26bY3g2-97" value="&amp;lt;&amp;lt;INCLUIR&amp;gt;&amp;gt;" style="edgeLabel;html=1;align=center;verticalAlign=middle;resizable=0;points=[];" vertex="1" connectable="0" parent="69lMO64Vux8GE26bY3g2-96">
          <mxGeometry x="0.4607" relative="1" as="geometry">
            <mxPoint x="9" as="offset" />
          </mxGeometry>
        </mxCell>
        <mxCell id="69lMO64Vux8GE26bY3g2-82" value="&lt;font style=&quot;font-size: 14px;&quot;&gt;Realizar Nova Solicitação de Faltas&lt;/font&gt;" style="ellipse;whiteSpace=wrap;html=1;" vertex="1" parent="1">
          <mxGeometry x="1000" y="170" width="120" height="80" as="geometry" />
        </mxCell>
        <mxCell id="69lMO64Vux8GE26bY3g2-83" value="&lt;font style=&quot;font-size: 14px;&quot;&gt;Preencher Formulário&lt;/font&gt;" style="ellipse;whiteSpace=wrap;html=1;" vertex="1" parent="1">
          <mxGeometry x="1280" y="170" width="120" height="80" as="geometry" />
        </mxCell>
        <mxCell id="69lMO64Vux8GE26bY3g2-92" value="&lt;font style=&quot;font-size: 14px;&quot;&gt;Gerar Documento PDF&lt;/font&gt;" style="ellipse;whiteSpace=wrap;html=1;" vertex="1" parent="1">
          <mxGeometry x="1280" y="80" width="120" height="80" as="geometry" />
        </mxCell>
        <mxCell id="69lMO64Vux8GE26bY3g2-95" value="&lt;font style=&quot;font-size: 12px;&quot;&gt;Confirmar Reposição de Aula&lt;/font&gt;" style="ellipse;whiteSpace=wrap;html=1;" vertex="1" parent="1">
          <mxGeometry x="1160" y="10" width="120" height="80" as="geometry" />
        </mxCell>
        <mxCell id="69lMO64Vux8GE26bY3g2-101" style="edgeStyle=orthogonalEdgeStyle;rounded=0;orthogonalLoop=1;jettySize=auto;html=1;exitX=0;exitY=0.5;exitDx=0;exitDy=0;entryX=0.5;entryY=1;entryDx=0;entryDy=0;dashed=1;" edge="1" parent="1" source="69lMO64Vux8GE26bY3g2-98" target="69lMO64Vux8GE26bY3g2-82">
          <mxGeometry relative="1" as="geometry" />
        </mxCell>
        <mxCell id="69lMO64Vux8GE26bY3g2-104" value="&amp;lt;&amp;lt;EXTENDER&amp;gt;&amp;gt;" style="edgeLabel;html=1;align=center;verticalAlign=middle;resizable=0;points=[];" vertex="1" connectable="0" parent="69lMO64Vux8GE26bY3g2-101">
          <mxGeometry x="-0.4583" y="-1" relative="1" as="geometry">
            <mxPoint as="offset" />
          </mxGeometry>
        </mxCell>
        <mxCell id="69lMO64Vux8GE26bY3g2-98" value="&lt;font style=&quot;font-size: 14px;&quot;&gt;Anexar Arquivos&lt;/font&gt;" style="ellipse;whiteSpace=wrap;html=1;" vertex="1" parent="1">
          <mxGeometry x="1280" y="290" width="120" height="80" as="geometry" />
        </mxCell>
        <mxCell id="69lMO64Vux8GE26bY3g2-102" style="edgeStyle=orthogonalEdgeStyle;rounded=0;orthogonalLoop=1;jettySize=auto;html=1;exitX=0;exitY=1;exitDx=0;exitDy=0;entryX=0.5;entryY=0;entryDx=0;entryDy=0;dashed=1;" edge="1" parent="1" source="69lMO64Vux8GE26bY3g2-99" target="69lMO64Vux8GE26bY3g2-109">
          <mxGeometry relative="1" as="geometry" />
        </mxCell>
        <mxCell id="69lMO64Vux8GE26bY3g2-105" value="&amp;lt;&amp;lt;EXTENDER&amp;gt;&amp;gt;" style="edgeLabel;html=1;align=center;verticalAlign=middle;resizable=0;points=[];" vertex="1" connectable="0" parent="69lMO64Vux8GE26bY3g2-102">
          <mxGeometry x="-0.5061" relative="1" as="geometry">
            <mxPoint x="-11" as="offset" />
          </mxGeometry>
        </mxCell>
        <mxCell id="69lMO64Vux8GE26bY3g2-99" value="&lt;font style=&quot;font-size: 14px;&quot;&gt;Corrigir Informações&lt;/font&gt;" style="ellipse;whiteSpace=wrap;html=1;" vertex="1" parent="1">
          <mxGeometry x="1160" y="409" width="120" height="80" as="geometry" />
        </mxCell>
        <mxCell id="69lMO64Vux8GE26bY3g2-117" style="rounded=0;orthogonalLoop=1;jettySize=auto;html=1;exitX=1;exitY=0.3333333333333333;exitDx=0;exitDy=0;exitPerimeter=0;entryX=0;entryY=1;entryDx=0;entryDy=0;endArrow=none;endFill=0;" edge="1" parent="1" source="69lMO64Vux8GE26bY3g2-108" target="69lMO64Vux8GE26bY3g2-109">
          <mxGeometry relative="1" as="geometry" />
        </mxCell>
        <mxCell id="69lMO64Vux8GE26bY3g2-119" style="rounded=0;orthogonalLoop=1;jettySize=auto;html=1;exitX=1;exitY=0.3333333333333333;exitDx=0;exitDy=0;exitPerimeter=0;entryX=0;entryY=0.5;entryDx=0;entryDy=0;endArrow=none;endFill=0;" edge="1" parent="1" source="69lMO64Vux8GE26bY3g2-108" target="69lMO64Vux8GE26bY3g2-118">
          <mxGeometry relative="1" as="geometry" />
        </mxCell>
        <mxCell id="69lMO64Vux8GE26bY3g2-108" value="Coordenador" style="shape=umlActor;verticalLabelPosition=bottom;verticalAlign=top;html=1;outlineConnect=0;" vertex="1" parent="1">
          <mxGeometry x="860" y="690" width="40" height="80" as="geometry" />
        </mxCell>
        <mxCell id="69lMO64Vux8GE26bY3g2-109" value="&lt;span style=&quot;font-size: 14px;&quot;&gt;Pesquisar Solicitação de Faltas&lt;/span&gt;" style="ellipse;whiteSpace=wrap;html=1;" vertex="1" parent="1">
          <mxGeometry x="1000" y="569" width="120" height="80" as="geometry" />
        </mxCell>
        <mxCell id="69lMO64Vux8GE26bY3g2-112" style="rounded=0;orthogonalLoop=1;jettySize=auto;html=1;exitX=0;exitY=0.5;exitDx=0;exitDy=0;dashed=1;entryX=0.5;entryY=0;entryDx=0;entryDy=0;edgeStyle=orthogonalEdgeStyle;" edge="1" parent="1" source="69lMO64Vux8GE26bY3g2-111" target="69lMO64Vux8GE26bY3g2-109">
          <mxGeometry relative="1" as="geometry" />
        </mxCell>
        <mxCell id="69lMO64Vux8GE26bY3g2-113" value="&amp;lt;&amp;lt;EXTENDER&amp;gt;&amp;gt;" style="edgeLabel;html=1;align=center;verticalAlign=middle;resizable=0;points=[];" vertex="1" connectable="0" parent="69lMO64Vux8GE26bY3g2-112">
          <mxGeometry x="-0.2157" relative="1" as="geometry">
            <mxPoint x="22" as="offset" />
          </mxGeometry>
        </mxCell>
        <mxCell id="69lMO64Vux8GE26bY3g2-111" value="&lt;span style=&quot;font-size: 14px;&quot;&gt;Baixar Solicitação de Faltas&lt;/span&gt;" style="ellipse;whiteSpace=wrap;html=1;" vertex="1" parent="1">
          <mxGeometry x="1280" y="489" width="120" height="80" as="geometry" />
        </mxCell>
        <mxCell id="69lMO64Vux8GE26bY3g2-115" style="edgeStyle=orthogonalEdgeStyle;rounded=0;orthogonalLoop=1;jettySize=auto;html=1;exitX=0;exitY=0.5;exitDx=0;exitDy=0;entryX=0.5;entryY=1;entryDx=0;entryDy=0;dashed=1;" edge="1" parent="1" source="69lMO64Vux8GE26bY3g2-114" target="69lMO64Vux8GE26bY3g2-109">
          <mxGeometry relative="1" as="geometry" />
        </mxCell>
        <mxCell id="69lMO64Vux8GE26bY3g2-116" value="&amp;lt;&amp;lt;EXTENDER&amp;gt;&amp;gt;" style="edgeLabel;html=1;align=center;verticalAlign=middle;resizable=0;points=[];" vertex="1" connectable="0" parent="69lMO64Vux8GE26bY3g2-115">
          <mxGeometry x="-0.304" y="2" relative="1" as="geometry">
            <mxPoint x="10" y="-2" as="offset" />
          </mxGeometry>
        </mxCell>
        <mxCell id="69lMO64Vux8GE26bY3g2-114" value="&lt;span style=&quot;font-size: 14px;&quot;&gt;Visualizar Solicitações de Faltas&lt;/span&gt;" style="ellipse;whiteSpace=wrap;html=1;" vertex="1" parent="1">
          <mxGeometry x="1280" y="649" width="120" height="80" as="geometry" />
        </mxCell>
        <mxCell id="69lMO64Vux8GE26bY3g2-118" value="&lt;span style=&quot;font-size: 14px;&quot;&gt;Alterar Status Solicitações de Faltas&lt;/span&gt;" style="ellipse;whiteSpace=wrap;html=1;" vertex="1" parent="1">
          <mxGeometry x="1000" y="770" width="120" height="80" as="geometry" />
        </mxCell>
        <mxCell id="69lMO64Vux8GE26bY3g2-121" style="edgeStyle=orthogonalEdgeStyle;rounded=0;orthogonalLoop=1;jettySize=auto;html=1;exitX=0;exitY=0.5;exitDx=0;exitDy=0;entryX=0.5;entryY=1;entryDx=0;entryDy=0;dashed=1;" edge="1" parent="1" source="69lMO64Vux8GE26bY3g2-120" target="69lMO64Vux8GE26bY3g2-118">
          <mxGeometry relative="1" as="geometry" />
        </mxCell>
        <mxCell id="69lMO64Vux8GE26bY3g2-122" value="&amp;lt;&amp;lt;EXTENDER&amp;gt;&amp;gt;" style="edgeLabel;html=1;align=center;verticalAlign=middle;resizable=0;points=[];" vertex="1" connectable="0" parent="69lMO64Vux8GE26bY3g2-121">
          <mxGeometry x="0.0991" y="-1" relative="1" as="geometry">
            <mxPoint x="54" y="1" as="offset" />
          </mxGeometry>
        </mxCell>
        <mxCell id="69lMO64Vux8GE26bY3g2-120" value="&lt;span style=&quot;font-size: 14px;&quot;&gt;Comentar Solicitações de Faltas&lt;/span&gt;" style="ellipse;whiteSpace=wrap;html=1;" vertex="1" parent="1">
          <mxGeometry x="1280" y="890" width="120" height="80" as="geometry" />
        </mxCell>
        <mxCell id="69lMO64Vux8GE26bY3g2-129" style="rounded=0;orthogonalLoop=1;jettySize=auto;html=1;exitX=0;exitY=0.3333333333333333;exitDx=0;exitDy=0;exitPerimeter=0;entryX=1;entryY=0.5;entryDx=0;entryDy=0;endArrow=none;endFill=0;" edge="1" parent="1" source="69lMO64Vux8GE26bY3g2-125" target="69lMO64Vux8GE26bY3g2-126">
          <mxGeometry relative="1" as="geometry" />
        </mxCell>
        <mxCell id="69lMO64Vux8GE26bY3g2-130" style="rounded=0;orthogonalLoop=1;jettySize=auto;html=1;exitX=0;exitY=0.3333333333333333;exitDx=0;exitDy=0;exitPerimeter=0;entryX=1;entryY=0.5;entryDx=0;entryDy=0;endArrow=none;endFill=0;" edge="1" parent="1" source="69lMO64Vux8GE26bY3g2-125" target="69lMO64Vux8GE26bY3g2-109">
          <mxGeometry relative="1" as="geometry" />
        </mxCell>
        <mxCell id="69lMO64Vux8GE26bY3g2-147" style="rounded=0;orthogonalLoop=1;jettySize=auto;html=1;exitX=0;exitY=0.3333333333333333;exitDx=0;exitDy=0;exitPerimeter=0;entryX=1;entryY=0.5;entryDx=0;entryDy=0;endArrow=none;endFill=0;" edge="1" parent="1" source="69lMO64Vux8GE26bY3g2-125" target="69lMO64Vux8GE26bY3g2-134">
          <mxGeometry relative="1" as="geometry" />
        </mxCell>
        <mxCell id="69lMO64Vux8GE26bY3g2-148" style="rounded=0;orthogonalLoop=1;jettySize=auto;html=1;exitX=0;exitY=0.3333333333333333;exitDx=0;exitDy=0;exitPerimeter=0;entryX=1;entryY=0.5;entryDx=0;entryDy=0;endArrow=none;endFill=0;" edge="1" parent="1" source="69lMO64Vux8GE26bY3g2-125" target="69lMO64Vux8GE26bY3g2-138">
          <mxGeometry relative="1" as="geometry" />
        </mxCell>
        <mxCell id="69lMO64Vux8GE26bY3g2-149" style="rounded=0;orthogonalLoop=1;jettySize=auto;html=1;exitX=0;exitY=0.3333333333333333;exitDx=0;exitDy=0;exitPerimeter=0;entryX=1;entryY=0.5;entryDx=0;entryDy=0;endArrow=none;endFill=0;" edge="1" parent="1" source="69lMO64Vux8GE26bY3g2-125" target="69lMO64Vux8GE26bY3g2-139">
          <mxGeometry relative="1" as="geometry" />
        </mxCell>
        <mxCell id="69lMO64Vux8GE26bY3g2-125" value="Administrativo" style="shape=umlActor;verticalLabelPosition=bottom;verticalAlign=top;html=1;outlineConnect=0;" vertex="1" parent="1">
          <mxGeometry x="2000" y="569" width="40" height="80" as="geometry" />
        </mxCell>
        <mxCell id="69lMO64Vux8GE26bY3g2-131" style="edgeStyle=orthogonalEdgeStyle;rounded=0;orthogonalLoop=1;jettySize=auto;html=1;exitX=0;exitY=0.5;exitDx=0;exitDy=0;entryX=1;entryY=0.5;entryDx=0;entryDy=0;dashed=1;" edge="1" parent="1" source="69lMO64Vux8GE26bY3g2-126" target="69lMO64Vux8GE26bY3g2-118">
          <mxGeometry relative="1" as="geometry" />
        </mxCell>
        <mxCell id="69lMO64Vux8GE26bY3g2-132" value="&amp;lt;&amp;lt;EXTENDER&amp;gt;&amp;gt;" style="edgeLabel;html=1;align=center;verticalAlign=middle;resizable=0;points=[];" vertex="1" connectable="0" parent="69lMO64Vux8GE26bY3g2-131">
          <mxGeometry x="0.1305" relative="1" as="geometry">
            <mxPoint x="24" as="offset" />
          </mxGeometry>
        </mxCell>
        <mxCell id="69lMO64Vux8GE26bY3g2-126" value="&lt;span style=&quot;font-size: 14px;&quot;&gt;Finalizar Requisições Aprovadas&lt;/span&gt;" style="ellipse;whiteSpace=wrap;html=1;" vertex="1" parent="1">
          <mxGeometry x="1480" y="770" width="120" height="80" as="geometry" />
        </mxCell>
        <mxCell id="69lMO64Vux8GE26bY3g2-134" value="&lt;span style=&quot;font-size: 14px;&quot;&gt;Cadastrar Novo Funcionário&lt;/span&gt;" style="ellipse;whiteSpace=wrap;html=1;" vertex="1" parent="1">
          <mxGeometry x="1720" y="489" width="120" height="80" as="geometry" />
        </mxCell>
        <mxCell id="69lMO64Vux8GE26bY3g2-138" value="&lt;span style=&quot;font-size: 14px;&quot;&gt;Cadastrar Nova Disciplina&lt;/span&gt;" style="ellipse;whiteSpace=wrap;html=1;" vertex="1" parent="1">
          <mxGeometry x="1720" y="369" width="120" height="80" as="geometry" />
        </mxCell>
        <mxCell id="69lMO64Vux8GE26bY3g2-139" value="&lt;span style=&quot;font-size: 14px;&quot;&gt;Cadastrar Novo Curso&lt;/span&gt;" style="ellipse;whiteSpace=wrap;html=1;" vertex="1" parent="1">
          <mxGeometry x="1720" y="249" width="120" height="80" as="geometry" />
        </mxCell>
        <mxCell id="69lMO64Vux8GE26bY3g2-143" style="edgeStyle=orthogonalEdgeStyle;rounded=0;orthogonalLoop=1;jettySize=auto;html=1;exitX=1;exitY=0.5;exitDx=0;exitDy=0;entryX=0;entryY=0.5;entryDx=0;entryDy=0;dashed=1;" edge="1" parent="1" source="69lMO64Vux8GE26bY3g2-140" target="69lMO64Vux8GE26bY3g2-134">
          <mxGeometry relative="1" as="geometry" />
        </mxCell>
        <mxCell id="69lMO64Vux8GE26bY3g2-152" value="&amp;lt;&amp;lt;EXTENDER&amp;gt;&amp;gt;" style="edgeLabel;html=1;align=center;verticalAlign=middle;resizable=0;points=[];" vertex="1" connectable="0" parent="69lMO64Vux8GE26bY3g2-143">
          <mxGeometry x="-0.2231" y="1" relative="1" as="geometry">
            <mxPoint x="13" y="1" as="offset" />
          </mxGeometry>
        </mxCell>
        <mxCell id="69lMO64Vux8GE26bY3g2-140" value="&lt;span style=&quot;font-size: 14px;&quot;&gt;Atualizar Dados Funcionário&lt;/span&gt;" style="ellipse;whiteSpace=wrap;html=1;" vertex="1" parent="1">
          <mxGeometry x="1480" y="490" width="120" height="80" as="geometry" />
        </mxCell>
        <mxCell id="69lMO64Vux8GE26bY3g2-145" style="edgeStyle=orthogonalEdgeStyle;rounded=0;orthogonalLoop=1;jettySize=auto;html=1;exitX=1;exitY=0.5;exitDx=0;exitDy=0;entryX=0;entryY=0.5;entryDx=0;entryDy=0;dashed=1;" edge="1" parent="1" source="69lMO64Vux8GE26bY3g2-141" target="69lMO64Vux8GE26bY3g2-138">
          <mxGeometry relative="1" as="geometry" />
        </mxCell>
        <mxCell id="69lMO64Vux8GE26bY3g2-151" value="&amp;lt;&amp;lt;EXTENDER&amp;gt;&amp;gt;" style="edgeLabel;html=1;align=center;verticalAlign=middle;resizable=0;points=[];" vertex="1" connectable="0" parent="69lMO64Vux8GE26bY3g2-145">
          <mxGeometry x="-0.2389" relative="1" as="geometry">
            <mxPoint x="14" as="offset" />
          </mxGeometry>
        </mxCell>
        <mxCell id="69lMO64Vux8GE26bY3g2-141" value="&lt;span style=&quot;font-size: 14px;&quot;&gt;Atualizar Dados Disciplina&lt;/span&gt;" style="ellipse;whiteSpace=wrap;html=1;" vertex="1" parent="1">
          <mxGeometry x="1480" y="370" width="120" height="80" as="geometry" />
        </mxCell>
        <mxCell id="69lMO64Vux8GE26bY3g2-146" style="edgeStyle=orthogonalEdgeStyle;rounded=0;orthogonalLoop=1;jettySize=auto;html=1;exitX=1;exitY=0.5;exitDx=0;exitDy=0;entryX=0;entryY=0.5;entryDx=0;entryDy=0;dashed=1;" edge="1" parent="1" source="69lMO64Vux8GE26bY3g2-142" target="69lMO64Vux8GE26bY3g2-139">
          <mxGeometry relative="1" as="geometry" />
        </mxCell>
        <mxCell id="69lMO64Vux8GE26bY3g2-150" value="&amp;lt;&amp;lt;EXTENDER&amp;gt;&amp;gt;" style="edgeLabel;html=1;align=center;verticalAlign=middle;resizable=0;points=[];" vertex="1" connectable="0" parent="69lMO64Vux8GE26bY3g2-146">
          <mxGeometry x="-0.2083" y="-3" relative="1" as="geometry">
            <mxPoint x="12" y="-3" as="offset" />
          </mxGeometry>
        </mxCell>
        <mxCell id="69lMO64Vux8GE26bY3g2-142" value="&lt;span style=&quot;font-size: 14px;&quot;&gt;Atualizar Dados Curso&lt;/span&gt;" style="ellipse;whiteSpace=wrap;html=1;" vertex="1" parent="1">
          <mxGeometry x="1480" y="250" width="120" height="80" as="geometry" />
        </mxCell>
      </root>
    </mxGraphModel>
  </diagram>
</mxfile>
